<svg width="39" height="32" xmlns="http://www.w3.org/2000/svg">
  <g fill="none" fill-rule="evenodd">
    <path fill="#FFF" d="M2 11h26v19H2z"/>
    <path fill="#FFF" d="M6 6h26v19H6z"/>
    <path fill="#FFF" d="M11 2h26v19H11z"/>
    <path d="M35.379 0H12.5c-1.88 0-3.409 1.538-3.409 3.428v1.143H7.955c-1.88 0-3.41 1.539-3.41 3.43v1.142H3.409C1.525 9.143 0 10.687 0 12.572v16C0 30.462 1.532 32 3.409 32h22.727c1.873 0 3.409-1.534 3.409-3.428v-1.143h1.288c1.88 0 3.409-1.539 3.409-3.428v-1.144h1.137c1.88 0 3.409-1.538 3.409-3.429v-16c0-1.89-1.529-3.428-3.409-3.428zm-9.822 11.429L15.58 21.557a1.132 1.132 0 0 1-1.615 0L3.989 11.429h21.568zM2.273 28.098V12.935l7.503 7.617-7.503 7.546zm1.607 1.616l7.496-7.539.975.99a3.395 3.395 0 0 0 4.844 0l.975-.99 7.496 7.539H3.88zm23.393-1.616l-7.504-7.546 7.504-7.617v15.163zM31.97 24c0 .63-.51 1.142-1.137 1.142h-1.288V12.572c0-1.884-1.524-3.429-3.409-3.429H6.818V8.001c0-.631.51-1.144 1.137-1.144h22.878c.627 0 1.137.513 1.137 1.144v16zm4.545-4.573c0 .631-.51 1.144-1.136 1.144h-1.137V8.001c0-1.891-1.529-3.43-3.409-3.43H11.364V3.428c0-.63.509-1.142 1.136-1.142h22.879a1.14 1.14 0 0 1 1.136 1.142v16z" fill="#000"/>
  </g>
</svg>
